<?xml version="1.0" standalone="no"?>
<!DOCTYPE svg PUBLIC "-//W3C//DTD SVG 20010904//EN"
 "http://www.w3.org/TR/2001/REC-SVG-20010904/DTD/svg10.dtd">
<svg version="1.0" xmlns="http://www.w3.org/2000/svg"
 width="473.000000pt" height="474.000000pt" viewBox="0 0 473.000000 474.000000"
 preserveAspectRatio="xMidYMid meet">
<metadata>
Created by potrace 1.16, written by Peter Selinger 2001-2019
</metadata>
<g transform="translate(0.000000,474.000000) scale(0.100000,-0.100000)"
fill="#000000" stroke="none">
<path d="M130 2176 c0 -1242 -1 -1221 56 -1391 220 -659 971 -971 1599 -665
97 47 215 123 215 139 0 4 -24 15 -53 24 -152 48 -344 165 -471 287 l-81 78
-60 -10 c-138 -21 -312 41 -423 151 -65 66 -123 172 -141 259 -8 36 -11 400
-11 1162 l0 1110 -315 0 -315 0 0 -1144z"/>
<path d="M1213 2343 c3 -948 4 -981 24 -1068 81 -350 297 -630 608 -787 302
-153 663 -165 968 -33 128 55 233 124 333 218 148 140 240 279 303 459 62 179
61 155 61 1219 l0 969 -315 0 -315 0 0 -933 c0 -1016 2 -985 -57 -1107 -32
-67 -148 -185 -219 -222 -106 -57 -264 -75 -375 -42 -178 52 -318 194 -364
369 -13 51 -15 187 -15 997 l0 938 -320 0 -321 0 4 -977z"/>
<path d="M3970 2218 c0 -1221 2 -1180 -65 -1307 -97 -184 -329 -307 -515 -273
l-54 10 -83 -78 c-46 -43 -121 -104 -166 -134 -88 -59 -243 -136 -314 -157
-24 -7 -43 -16 -43 -20 0 -16 128 -99 221 -143 317 -152 675 -154 986 -6 138
65 232 132 335 237 144 148 240 316 296 521 l27 97 3 1178 3 1177 -316 0 -315
0 0 -1102z"/>
</g>
</svg>
